<svg xmlns="http://www.w3.org/2000/svg" viewBox="0 0 63 40">
  <g fill="#2932E1" fill-rule="nonzero" transform="scale(1.4, 1.4)">
    <!-- Paddle logo -->
    <path d="M22.762 1c-1.186 0-2.15.965-2.15 2.15 0 1.186.964 2.15 2.15 2.15s2.15-.964 2.15-2.15c0-1.185-.964-2.15-2.15-2.15m-1.016 26.813h3.099a.159.159 0 00.144-.092l9.348-20.56a.158.158 0 00-.144-.222h-3.1a.156.156 0 00-.142.091L21.6 27.59a.158.158 0 00.145.223M41.449 1c-1.186 0-2.15.965-2.15 2.15 0 1.186.964 2.15 2.15 2.15s2.15-.964 2.15-2.15c0-1.185-.964-2.15-2.15-2.15M15.577 6.938h-3.099a.159.159 0 00-.144.092l-3.65 8.03H1.407a.242.242 0 00-.222.143L.012 17.817c-.04.09.025.192.124.192h7.207l-4.357 9.58a.158.158 0 00.144.223h3.099a.156.156 0 00.143-.092l9.349-20.559a.158.158 0 00-.144-.223m63.859 9.138h-2.154c-.052 0-.095.046-.095.103v.413c0 .057-.095.103-.148.103h-7.422c-.053 0-.095.046-.095.102v1.837c0 .057.042.103.095.103h7.422c.053 0 .148.046.148.102v5.974c0 .057.043.103.095.103h2.154c.052 0 .095-.046.095-.103v-6.055c0-.056.042-.102.095-.102h7.497c.052 0 .095-.046.095-.103v-1.756c0-.056-.043-.102-.095-.102h-7.497c-.053 0-.095-.046-.095-.103v-.413c0-.057-.043-.103-.095-.103"/>
    <path d="M87.119 24.731c-3.603-.102-5.733-2.507-6.892-4.94-.033-.068.014-.15.086-.15h2.342c.033 0 .063.019.08.05.916 1.674 2.23 2.662 4.397 2.871a.099.099 0 01.086.101v1.964c0 .058-.045.106-.1.104m-17.497 0c3.603-.102 5.733-2.507 6.892-4.94.033-.068-.014-.15-.086-.15h-2.342a.092.092 0 00-.08.05c-.916 1.674-2.23 2.662-4.397 2.871a.099.099 0 00-.086.101v1.964c0 .058.045.106.1.104m4.354-13.811l.075.017-.052.062c-.748.873-2.58 2.056-4.343 2.433a.1.1 0 00-.076.1v2.024c0 .066.057.115.117.1.623-.155 2.78-.773 4.425-2.186l.07-.062v2.173c0 .056.044.103.096.103h1.933c.053 0 .095-.046.095-.103V6.378c0-.056-.042-.101-.095-.101h-1.933c-.052 0-.095.045-.095.101v2.4l-.056-.017c-.85-.255-1.83-1.01-2.562-2.488a.093.093 0 00-.083-.054h-2.093c-.067 0-.115.072-.09.14.567 1.457 2.129 3.996 4.667 4.56m-14.221-.046h-1.127a.096.096 0 00-.087.056l-1.04 2.11c-.033.07.014.15.087.15h2.152c4.502 0 5.592-2.485 6.56-4.704.468-1.071.8-1.864.89-2.13a.101.101 0 00-.093-.136h-2.198a.096.096 0 00-.09.06l-.745 1.713c-.904 1.999-1.68 2.88-4.31 2.88m5.906 9.515h.887a.1.1 0 00.098-.103v-2.055a.1.1 0 00-.098-.102H65.9c-4.242-.111-6.14-3.334-6.358-3.811a.093.093 0 00-.087-.056h-2.31c-.072 0-.116.079-.086.149.702 1.667 2.854 5.681 8.6 5.978m17.27-8.531c-1.058-.518-2.005-1.68-2.254-1.99a.087.087 0 00-.12-.02 15.08 15.08 0 01-1.631.941c-.054.027-.071.104-.035.156.984 1.43 1.884 1.998 2.045 2.092.017.01.035.013.055.011l1.645-.204a.1.1 0 00.079-.067l.266-.792a.104.104 0 00-.05-.127"/>
    <path d="M86.767 6.935h-5.263l.042-.073c.127-.216.24-.438.34-.662.03-.068-.017-.148-.087-.148h-2.092a.092.092 0 00-.082.056c-.421.883-1.044 1.532-2.302 2.024a.101.101 0 00-.063.095v1.91c0 .07.062.12.123.1 1.399-.438 2.122-1.09 2.273-1.215A.09.09 0 0179.714 9H84.6c.104.004.18.038.228.1.048.063.066.152.052.266-1.432 3.713-5.84 4.095-7.531 4.175-.051.003-.09.048-.09.103v1.815c0 .058.046.105.1.104 8.449-.226 9.943-5.375 9.943-7.676v-.526c0-.225-.113-.427-.535-.427m-33.8 14.964c-.25-.425.009-1.1.327-1.765l6.113-13.186c.132-.273.214-.607-.386-.607h-9.242a.1.1 0 00-.098.103v2.035a.1.1 0 00.098.103h5.673c.053 0 .182.015.252.11.044.06.055.139.033.235l-.003.01-5.287 11.654c-.484 1.18-.506 2.267-.063 2.976.447.713 1.335 1.075 2.639 1.075h13.56a.1.1 0 00.098-.103V22.44a.1.1 0 00-.098-.103H54.177c-.64 0-1.036-.143-1.21-.44M26.23 11.839c-.301-2.693-2.507-4.805-5.257-4.9a.297.297 0 00-.073.009.1.1 0 00-.04-.008h-1.877a.117.117 0 00-.108.07L17.79 9.413a.119.119 0 00.108.168h1.915c.406-.006.703.02 1.035.072 1.542.24 2.5 1.37 2.479 2.87-.021 1.419-1.198 2.547-2.615 2.547h-6.858a.298.298 0 00-.271.175l-1.138 2.505a.184.184 0 00.167.259h8.015c3.323 0 5.975-2.868 5.604-6.17m18.618 0c-.302-2.693-2.508-4.805-5.258-4.9a.297.297 0 00-.073.009.1.1 0 00-.04-.008h-1.877a.117.117 0 00-.108.07l-1.085 2.403a.119.119 0 00.108.168h1.915c.406-.006.703.02 1.035.072 1.542.24 2.5 1.37 2.479 2.87-.021 1.419-1.198 2.547-2.615 2.547h-6.858a.298.298 0 00-.271.175l-1.138 2.505a.184.184 0 00.167.259h8.015c3.323 0 5.975-2.868 5.604-6.17"/>
  </g>
</svg>